<?xml version="1.0" encoding="iso-8859-1"?>
<!-- Generator: Adobe Illustrator 19.0.0, SVG Export Plug-In . SVG Version: 6.00 Build 0)  -->
<svg version="1.1" id="Capa_1" xmlns="http://www.w3.org/2000/svg" xmlns:xlink="http://www.w3.org/1999/xlink" x="0px" y="0px"
	 viewBox="0 0 511.999 511.999" style="enable-background:new 0 0 511.999 511.999;" xml:space="preserve">
<g>
	<polygon style="fill:#70B2CF;" points="161.432,50 161.432,100 350.583,100 350.583,10 161.432,10 	"/>
	<path style="fill:#986E62;" d="M350.565,150H233.94c-0.52,15.104,22.974,60.235,132.059,67.527v-11.525
		C365.998,185.591,360.359,166.436,350.565,150z"/>
	<g>
		<path style="fill:#0D7D9D;" d="M201.484,399.278l-53.549,19.287l-19.529,7.036c-42.385,15.269-46.65,17.883-55.029,59.839
			l-2.438,16.558h185.059l-0.15-84.906C222.89,417.524,201.484,399.278,201.484,399.278z"/>
		<path style="fill:#0D7D9D;" d="M255.849,417.092l0.15,84.906h145.508h39.553l-2.438-16.559
			c-8.378-41.956-12.644-44.57-55.031-59.839l-19.527-7.036l-53.548-19.287C290.342,412.328,271.75,416.885,255.849,417.092z"/>
	</g>
	<path style="fill:#70B2CF;" d="M255.849,417.092c15.902-0.207,34.494-4.765,54.668-17.814v-37.836
		c-16.096,9.255-34.715,14.557-54.52,14.557c-19.799,0-38.421-5.302-54.514-14.557v37.836
		C201.484,399.278,222.89,417.524,255.849,417.092z"/>
	<g>
		<path style="fill:#F5E9C6;" d="M255.999,375.999c19.803,0,38.422-5.302,54.518-14.557c28.058-16.134,48.434-44.279,53.973-77.285
			c0.993-5.912,1.51-11.977,1.51-18.158v-48.474c-109.085-7.292-132.579-52.423-132.059-67.527h-20.313
			c-13.022,64.767-67.629,67.527-67.629,67.527v48.474c0,6.181,0.517,12.246,1.51,18.158c5.54,33.008,25.915,61.153,53.976,77.285
			C217.576,370.698,236.198,375.999,255.999,375.999z"/>
		<path style="fill:#F5E9C6;" d="M365.998,266c0,6.181-0.517,12.246-1.51,18.158l1.51,0.033c18.41,0,33.334-14.923,33.334-33.334
			c0-18.408-14.924-33.331-33.334-33.331V266z"/>
		<path style="fill:#F5E9C6;" d="M145.998,266v-48.474c-18.408,0-33.333,14.923-33.333,33.331c0,18.41,14.925,33.334,33.333,33.334
			l1.51-0.033C146.515,278.246,145.998,272.181,145.998,266z"/>
	</g>
	<path style="fill:#986E62;" d="M145.998,217.527c0,0,54.607-2.761,67.629-67.527h-52.195
		c-9.792,16.431-15.434,35.588-15.434,56.002L145.998,217.527L145.998,217.527z"/>
	<polygon style="fill:#FF9D21;" points="213.627,150 233.94,150 350.565,150 350.583,150 350.583,100 161.432,100 161.432,150 	"/>
</g>
<path d="M218.763,273.001c5.507,0,9.999-4.494,9.999-10.001s-4.492-10-9.999-10c-5.51,0-10.002,4.492-10.002,10
	S213.253,273.001,218.763,273.001z"/>
<path d="M293.24,273.001c5.508,0,10.002-4.494,10.002-10.001s-4.494-10-10.002-10s-10,4.492-10,10S287.733,273.001,293.24,273.001z"
	/>
<path d="M321,434.941l-0.33-0.12c-5.19-1.888-10.928,0.787-12.817,5.977c-1.89,5.19,0.786,10.928,5.976,12.817l0.264,0.096
	c1.14,0.419,2.306,0.618,3.452,0.618c4.072,0,7.898-2.505,9.387-6.549C328.838,442.596,326.184,436.848,321,434.941z"/>
<path d="M450.952,500.541l-2.438-16.559c-0.025-0.168-0.054-0.335-0.087-0.502c-4.654-23.307-8.259-35.314-17.317-44.855
	c-8.995-9.474-21.971-14.451-44.131-22.434l-66.465-23.941V367.14c25.863-16.556,44.983-42.754,52.26-73.483
	c20.686-3.264,36.557-21.211,36.557-42.8c0-20.451-14.247-37.626-33.334-42.153v-2.703c0-20.539-5.33-40.743-15.415-58.63V10
	c0-5.523-4.478-10-10-10H161.432c-5.523,0-10,4.477-10,10v137.338c-10.097,17.895-15.434,38.111-15.434,58.663v2.703
	c-19.087,4.527-33.333,21.702-33.333,42.153c0,21.588,15.869,39.536,36.556,42.8c7.276,30.73,26.397,56.928,52.263,73.484v25.11
	l-66.467,23.941c-22.16,7.983-35.135,12.961-44.131,22.435c-9.057,9.54-12.662,21.547-17.316,44.854
	c-0.033,0.167-0.062,0.334-0.086,0.502l-2.438,16.559c-0.424,2.875,0.426,5.793,2.324,7.993c1.9,2.199,4.662,3.464,7.568,3.464
	h185.06h0.018h145.434c0.016,0,0.029,0.002,0.045,0.002c0.014,0,0.028-0.002,0.043-0.002h39.521c2.906,0,5.669-1.265,7.568-3.464
	C450.527,506.334,451.376,503.416,450.952,500.541z M167.296,160h33.371c-10.176,30.637-31.672,41.57-44.66,45.445
	C156.096,189.607,159.976,174.018,167.296,160z M213.619,140c-0.023,0-0.046,0-0.068,0h-42.119v-30h169.151v30H213.619z M344.7,160
	c7.407,14.182,11.298,29.973,11.298,46.002v0.681c-72.721-6.914-100.414-31.708-108.89-46.683H344.7z M389.332,250.858
	c0,9.348-5.528,17.425-13.484,21.145c0.099-1.989,0.15-3.99,0.15-6.002v-36.218C383.874,233.534,389.332,241.57,389.332,250.858z
	 M340.583,20V90H171.432V60h23.503c5.522,0,10-4.477,10-10s-4.478-10-10-10h-23.503V20H340.583z M122.665,250.858
	c0-9.288,5.457-17.324,13.333-21.075V266c0,2.013,0.052,4.014,0.15,6.002C128.193,268.282,122.665,260.205,122.665,250.858z
	 M157.407,282.741c-0.002-0.012-0.004-0.023-0.006-0.035c-0.918-5.435-1.403-11.014-1.403-16.706v-39.96
	c6.22-1.4,14.847-4.107,23.915-9.322c14.553-8.368,33.023-24.903,41.621-56.72h3.996c6.791,22.123,37.399,58.397,130.468,66.768V266
	c0,5.696-0.486,11.279-1.404,16.717c-0.002,0.006-0.003,0.012-0.004,0.019c-5.018,29.655-23.133,54.911-48.172,69.591
	c-0.593,0.267-1.154,0.589-1.679,0.961c-14.43,8.09-31.055,12.711-48.741,12.711h-0.002c-17.683,0-34.305-4.62-48.732-12.706
	c-0.529-0.377-1.096-0.703-1.695-0.972C180.536,337.642,162.426,312.391,157.407,282.741z M255.999,385.999
	c15.723,0,30.745-3.044,44.518-8.566v16.258c-16.402,9.62-31.449,13.148-44.435,13.412c-0.078-0.002-0.154-0.012-0.232-0.012
	c-0.006,0-0.013,0-0.019,0c-0.142,0-0.279,0.016-0.42,0.022c-21.475,0.252-37.209-8.376-43.928-12.876v-16.804
	C225.255,382.955,240.279,385.999,255.999,385.999z M83.235,487.147c7.458-37.335,8.313-37.64,48.561-52.139l68.08-24.522
	c5.736,3.853,16.279,9.889,30.393,13.515c4.615,1.186,9.854,2.153,15.6,2.667l0.114,65.329H82.52L83.235,487.147z M409.793,491.997
	c-2.332-11.593-5.03-19.914-13.002-26.723c-8.311-7.098-20.667-11.34-47.822-20.258c-5.246-1.721-10.897,1.134-12.621,6.381
	c-1.723,5.247,1.134,10.898,6.381,12.621c23.27,7.642,35.664,11.845,41.074,16.464c2.748,2.348,4.116,5.31,5.545,11.514H265.981
	l-0.115-65.576c13.758-1.567,29.281-6.202,45.818-16.094l68.518,24.681c40.251,14.499,41.107,14.806,48.565,52.14l0.715,4.849
	L409.793,491.997L409.793,491.997z"/>
<path d="M224.02,60h0.474c5.523,0,10-4.477,10-10s-4.477-10-10-10h-0.474c-5.523,0-10,4.477-10,10S218.497,60,224.02,60z"/>
<g>
</g>
<g>
</g>
<g>
</g>
<g>
</g>
<g>
</g>
<g>
</g>
<g>
</g>
<g>
</g>
<g>
</g>
<g>
</g>
<g>
</g>
<g>
</g>
<g>
</g>
<g>
</g>
<g>
</g>
</svg>
