<?xml version="1.0" encoding="iso-8859-1"?>
<!-- Generator: Adobe Illustrator 19.0.0, SVG Export Plug-In . SVG Version: 6.00 Build 0)  -->
<svg version="1.1" id="Capa_1" xmlns="http://www.w3.org/2000/svg" xmlns:xlink="http://www.w3.org/1999/xlink" x="0px" y="0px"
	 viewBox="0 0 512 512" style="enable-background:new 0 0 512 512;" xml:space="preserve">
<polygon style="fill:#62BEFF;" points="485.12,262.827 366.933,499.2 341.333,499.2 384,388.267 443.733,217.6 475.025,221.867 "/>
<polygon style="fill:#4EBE80;" points="102.042,465.067 290.133,268.8 204.8,183.467 8.533,388.267 85.333,465.067 "/>
<path style="fill:#5B5B5B;" d="M93.867,507.733c-14.14,0-25.6-11.46-25.6-25.6s11.46-25.6,25.6-25.6s25.6,11.46,25.6,25.6
	S108.006,507.733,93.867,507.733z M93.867,473.6c-4.71,0-8.533,3.823-8.533,8.533s3.823,8.533,8.533,8.533
	c4.71,0,8.533-3.823,8.533-8.533S98.577,473.6,93.867,473.6z"/>
<rect x="8.782" y="319.971" transform="matrix(-0.7071 0.7071 -0.7071 -0.7071 494.4921 452.1835)" style="fill:#03AA6F;" width="289.627" height="17.067"/>
<rect x="47.796" y="328.561" transform="matrix(-0.6953 0.7187 -0.7187 -0.6953 625.3175 409.0906)" style="fill:#5B5B5B;" width="356.296" height="17.066"/>
<polyline style="fill:#00448F;" points="460.8,499.2 512,371.2 460.8,217.6 512,226.133 512,448 486.4,499.2 "/>
<polyline style="fill:#FFCB5A;" points="375.467,209.067 401.067,209.067 392.533,106.667 486.4,89.6 443.733,217.6 512,226.133 
	512,38.4 486.4,38.4 358.4,81.067 375.467,209.067 "/>
<rect x="102.4" y="174.933" width="59.733" height="17.067"/>
<rect x="68.267" y="174.933" width="17.067" height="17.067"/>
<rect x="34.133" y="251.733" width="34.133" height="17.067"/>
<rect y="251.733" width="17.067" height="17.067"/>
<rect x="290.133" y="448" width="34.133" height="17.067"/>
<rect x="256" y="448" width="17.067" height="17.067"/>
<rect x="242.156" y="213.314" transform="matrix(-0.7071 0.7071 -0.7071 -0.7071 601.1593 194.6857)" style="fill:#5B5B5B;" width="36.207" height="17.067"/>
<rect x="401.067" y="4.267" width="59.733" height="17.067"/>
<rect x="34.133" y="174.933" width="17.067" height="17.067"/>
<rect x="341.154" y="490.667" style="fill:#62BEFF;" width="51.2" height="17.067"/>
<rect x="460.8" y="490.667" style="fill:#00448F;" width="51.2" height="17.067"/>
<rect x="358.4" y="200.533" style="fill:#FFCB5A;" width="34.133" height="17.067"/>
<g>
</g>
<g>
</g>
<g>
</g>
<g>
</g>
<g>
</g>
<g>
</g>
<g>
</g>
<g>
</g>
<g>
</g>
<g>
</g>
<g>
</g>
<g>
</g>
<g>
</g>
<g>
</g>
<g>
</g>
</svg>
